<svg xmlns="http://www.w3.org/2000/svg" xmlns:xlink="http://www.w3.org/1999/xlink" version="1.1" x="0px" y="0px" viewBox="0 0 100 100" enable-background="new 0 0 100 100" xml:space="preserve"><g><path fill-rule="evenodd" clip-rule="evenodd" d="M25.227,15.294c2.024-0.046,1.55-3.257,2.88-3.6c0.119,0.766,0.71-0.079,1.2-0.48   c1.895,2.051,1.82,4.5,5.04,4.8c2.96,0.276,5.891-2.457,5.28-5.28c-0.11-0.508-1.023-1.643-1.92-1.68   c-2.041-0.084-1.721,1.681-3.12,2.64c-0.74-2.292-1.39-3.879-4.08-4.56c-0.56,0-1.12,0-1.68,0   C25.863,6.18,20.767,15.396,25.227,15.294z"></path><path fill-rule="evenodd" clip-rule="evenodd" d="M92.667,89.694c-4.021-1.266-11.141,0.812-14.641-0.96   c1.485,0.109,4.324-0.78,5.761-0.72c-0.204,0.356-0.773,0.347-1.2,0.479c3.611-0.05,8.832,1.441,9.84-2.16   c0.307-1.095-0.22-2.906-0.24-4.56c-0.063-5.126,0.683-12.778-0.24-14.88c1.188-3.856,0.008-8.522,0-13.44   c-0.009-6.069,1.181-13.257-0.96-16.08c-2.796-1.153-4.17,0.388-6.72,1.44c-1.631,0.673-3.865,1.11-6,1.92   c-4.878,1.851-8.038,3.507-12.72,4.8c-0.305-2.866,0.93-7.864-1.92-8.64c-1.058-0.288-5.363,1.181-6.721,1.68   c-2.252,0.829-4.243,1.858-6.24,2.64c-5.071,1.986-9.565,3.358-12,5.04c-0.622-2.322,0.529-6.009-0.96-8.4   c-3.196-0.749-6.716,1.408-8.64,1.92c0.092-2.422,0.031-5.82,0-9.6c-0.041-5.102,0.995-11.57-1.68-12.96   c-4.752-0.058-8.583-1.136-9.12,2.88c-0.808,6.034,0.84,17.976,0,23.28c-1.655,2.829-7.633,1.878-9.36,4.56   c-1.102,1.71-0.48,6.42-0.48,9.84c0,6.372,0,12.994,0,19.2c0,5.168-0.797,9.67,1.68,10.8c5.55,0.022,11.141,0.233,16.56,0.479   c3.599,0.164,7.316-0.66,10.32,0.48c-10.185,0.914-18.178-0.271-27.6,0.72c-1.297,0.237,0.097-0.717-1.2-0.479   c-1.452,0.228-2.453,0.907-2.88,2.16c0,0.319,0,0.64,0,0.96c1.746,2.17,3.509,1.292,6.24,1.199c3.672-0.124,8.127,0.312,12.72,0   c15.598-1.057,34.66-0.479,53.28-0.479c4.335,0,15.512,0.786,16.319-1.2c0.08,0,0.16,0,0.24,0c0-0.24,0-0.48,0-0.72   C93.707,90.376,93.4,89.925,92.667,89.694z M45.146,88.494c0.039,0.281,0.438,0.202,0.72,0.24c-3.135,0.011-5.974,0.627-9.12-0.24   c1.298-0.333,4.583-0.586,5.52,0.24c1.73-1.039,4.083-0.484,5.52-0.24C47.136,89.206,46.016,88.358,45.146,88.494z M53.066,88.975   c-0.508,0.44-0.696,0.826-1.439,0.479c0.038-0.281,0.438-0.202,0.72-0.24c-0.127-0.192-0.25-0.39-0.24-0.72   c-0.278,0.201-0.644,0.316-1.2,0.24c-0.222-0.316,1.687-0.542,2.64-0.48C54.496,88.549,51.867,88.43,53.066,88.975z M57.387,88.494   c0.916,0.166,1.155-0.976,1.92-0.24C59.379,89.342,57.107,88.753,57.387,88.494z M11.547,84.654c0-11.52,0-23.04,0-34.56   c2.469-2.403,7.391-1.585,9.36-4.08c1.426-1.807,0.513-5.338,0.48-7.68c-0.051-3.549,0.811-9.968,0.96-14.64   c0.034-1.064-0.892-2.015-0.24-2.88c0.794,0.324,2.667-0.33,2.64,0.24c-0.24,0-0.48,0-0.72,0c0.549,0.582,0.85,0.29,1.68,0.24   c-1.449,1.643-0.719,4.34-0.24,7.2c-0.326-0.074-0.199-0.601-0.24-0.96c-0.424,1.195-0.364,4.299,0.48,5.76   c0.211,1.118-0.791-0.162-0.72,0.48c0.566,4.198-1.659,8.919,2.4,10.56c2.233,0.048,5.252-1.594,5.76-1.68   c-0.103,0.397,0.895-0.021,0.96-0.24c0.414,0.855,0.934,2.032,0.72,3.36c-0.326-0.074-0.199-0.601-0.24-0.96   c-0.908,2.078-0.195,5.016,1.44,6c3.529,0.365,5.563-1.64,8.16-2.64c4.408-1.698,9.335-2.577,12.48-4.8   c1.85,0.01,2.844-0.836,4.319-1.2c-0.082,1.993,0.041,5.451,0.721,7.44c3.436,2.497,11.271-2.784,14.88-3.36   c1.711-0.273,2.793-1.515,3.84-1.92c2.484-0.963,5.198-1.105,7.2-2.4c0.774,13.65-0.17,28.495,0.479,42.24   C64.231,85.19,36.571,84.325,11.547,84.654z M73.227,89.694c-0.565-0.074-0.446-0.834-1.2-0.72c-0.217-0.124,2.241-0.262,2.88,0   C74.849,89.717,72.932,88.599,73.227,89.694z M75.146,88.975c0.204-0.356,0.604-0.517,1.2-0.48c-0.046,0.194-0.241,0.239-0.24,0.48   C79.551,88.796,76.471,89.676,75.146,88.975z"></path><path fill-rule="evenodd" clip-rule="evenodd" d="M30.027,56.574c-0.761,0.072-1.802-0.78-1.773-1.251   c-0.153,0.151-0.179-0.876-0.387-0.909c-1.172,1.004-0.92-1.13-2.4,0.24c0.018-0.418-0.054-0.746-0.24-0.96   c-1.59,0.229-4.221-0.435-5.28,1.68c-0.027-0.293-0.072-0.568-0.48-0.479c-7.103,4.647-2.995,15.149-4.08,22.8   c0.319,0.24,0.724,0.396,0.96,0.72c5.208-0.939,10.307-0.272,15.36-0.72C30.899,70.641,32.651,60.559,30.027,56.574z    M28.347,74.814c-1.899,0.014-3.757-0.627-4.56-0.72c-0.84-0.098-2.013,0.6-1.92-0.721c-0.546,0.67-0.93,0.014-1.44,0.721   c-1.068-3.348-0.606-9.597-0.72-12.96c1.385-2.122,3.007-2.963,5.52-3.12C30.211,60.371,28.178,69.328,28.347,74.814z"></path><path fill-rule="evenodd" clip-rule="evenodd" d="M28.254,55.323c0.027-0.026,0.057-0.078,0.093-0.188   C28.285,55.185,28.259,55.25,28.254,55.323z"></path><path fill-rule="evenodd" clip-rule="evenodd" d="M57.866,60.895c-0.337-2.698-2.412-4.587-2.64-5.28   c-0.014,0.146-0.036,0.284-0.24,0.24c-0.979-0.543-0.44-2.039-1.92-0.96c0.014-0.307,0.308-0.333,0.24-0.721   c-0.752-0.035-1.325,0.379-1.68,0.24c0.093-0.343,0.288-0.404,0-0.72c-1.783-0.104-4.39-0.051-5.521,1.68   c-0.027-0.293-0.072-0.568-0.48-0.479c-6.501,3.449-3.204,15.894-4.08,22.8c1.572,1.457,3.969,0.067,6.24,0   c3.361-0.1,6.931,0.43,10.08,0.24C57.455,73.468,58.487,65.854,57.866,60.895z M54.747,74.814c-2.843,0.047-4.858-1.205-6.48-0.48   c0.105-0.295,0.307-0.492,0.72-0.479c-0.342-0.214-1.692-0.47-2.16,0.24c-0.711-0.169-0.38-1.38-1.2-1.44   c0.046-0.272,0.241-0.133,0.24,0c0.97-5.223-2.533-14.925,6-14.64C56.22,60.469,54.241,67.848,54.747,74.814z"></path><path fill-rule="evenodd" clip-rule="evenodd" d="M83.787,58.975c-0.688-2.172-2.861-2.401-3.12-4.32   c-1.075-0.435-1.335,0.697-1.44-0.48c-1.379,0.048-5.019-1.621-6.72,1.2c-0.027-0.293-0.072-0.568-0.48-0.479   c-7.275,5.547-3.201,15.097-4.08,23.04c4.862,0.365,11.397-0.189,16.32-0.24C83.115,71.797,85.171,63.343,83.787,58.975z    M80.906,74.814c-4.091-0.109-5.97-1.347-7.92-0.72c-1.243-3.066-0.614-9.338-0.72-12.96c1.264-2.243,3.073-2.896,5.521-3.12   C82.662,60.193,80.354,68.198,80.906,74.814z"></path></g></svg>