<svg xmlns="http://www.w3.org/2000/svg" viewBox="0 0 46 68" x="0px" y="0px"><path fill="#000000" fill-rule="evenodd" d="M669,416 L675,416 C676.104569,416 677,416.895431 677,418 L677,424 C677,425.104569 676.104569,426 675,426 L669,426 C667.895431,426 667,425.104569 667,424 L667,418 C667,416.895431 667.895431,416 669,416 Z M687,435 L693,435 C694.104569,435 695,435.895431 695,437 L695,443 C695,444.104569 694.104569,445 693,445 L687,445 C685.895431,445 685,444.104569 685,443 L685,437 C685,435.895431 685.895431,435 687,435 Z M705,453 L711,453 C712.104569,453 713,453.895431 713,455 L713,461 C713,462.104569 712.104569,463 711,463 L705,463 C703.895431,463 703,462.104569 703,461 L703,455 C703,453.895431 703.895431,453 705,453 Z M705,471 L711,471 C712.104569,471 713,471.895431 713,473 L713,479 C713,480.104569 712.104569,481 711,481 L705,481 C703.895431,481 703,480.104569 703,479 L703,473 C703,471.895431 703.895431,471 705,471 Z M690.5,477.936991 C690.34019,477.978123 690.17265,478 690,478 C688.895431,478 688,477.104569 688,476 L688,449.992965 C688,449.446109 688.45191,449 689.009369,449 L690.990631,449 C691.556647,449 692,449.444566 692,449.992965 L692,456 L698.00297,456 C698.546964,456 699,456.45191 699,457.009369 L699,458.990631 C699,459.556647 698.553614,460 698.00297,460 L692,460 L692,474 L698.00297,474 C698.546964,474 699,474.45191 699,475.009369 L699,476.990631 C699,477.556647 698.553614,478 698.00297,478 L691,478 C690.82735,478 690.65981,477.978123 690.5,477.936991 L690.5,477.936991 Z M674,438 L680.002455,438 C680.553689,438 681,438.45191 681,439.009369 L681,440.990631 C681,441.556647 680.553384,442 680.002455,442 L674,442 L674,483.000242 C674,483.557731 673.54809,484 672.990631,484 L671.009369,484 C670.443353,484 670,483.552393 670,483.000242 L670,430.999758 C670,430.442269 670.45191,430 671.009369,430 L672.990631,430 C673.556647,430 674,430.447607 674,430.999758 L674,438 Z" transform="translate(-667 -416)"></path></svg>