<svg xmlns="http://www.w3.org/2000/svg" xmlns:xlink="http://www.w3.org/1999/xlink" version="1.1" x="0px" y="0px" viewBox="0 0 504 432" style="enable-background:new 0 0 504 432;" xml:space="preserve"><g><path d="M376,236.627c2.209,0,4-1.791,4-4v-12.471c0-2.209-1.791-4-4-4s-4,1.791-4,4v12.471   C372,234.836,373.791,236.627,376,236.627z"></path><path d="M376,182.588c2.209,0,4-1.791,4-4v-12.471c0-2.209-1.791-4-4-4s-4,1.791-4,4v12.471   C372,180.797,373.791,182.588,376,182.588z"></path><path d="M425.6,224.471c-2.209,0-4,1.791-4,4v12.471c0,2.209,1.791,4,4,4s4-1.791,4-4v-12.471   C429.6,226.262,427.809,224.471,425.6,224.471z"></path><path d="M500,290.98h-12.4c-2.209,0-4,1.791-4,4v12.627H479.2V294.98c0-2.209-1.791-4-4-4h-12.4c-2.209,0-4,1.791-4,4v12.627H454.4   V294.98c0-2.209-1.791-4-4-4h-0.134v-33.412c0-2.209-1.791-4-4-4h-0.133v-41.726c0-0.64-0.165-1.237-0.432-1.774l0.014-0.007   l-24.383-49.042v-32.315c0-2.209-1.791-4-4-4s-4,1.791-4,4v32.315l-16.8,33.791V149.49c0-0.82-0.249-1.582-0.672-2.217l0.001-0.001   c-6.165-9.251-11.632-18.873-16.249-28.596c-7.504-15.802-12.961-32.266-16.221-48.934c-0.367-1.877-2.013-3.232-3.926-3.232   s-3.559,1.354-3.926,3.232c-3.262,16.673-8.719,33.137-16.221,48.935c-2.692,5.669-5.68,11.3-8.92,16.847v-21.325   c4.917-2.664,8.267-7.884,8.267-13.877c0-4.204-1.63-8.158-4.588-11.134c-5.271-5.3-8.654-12.019-9.788-19.429l-6.337-41.421   c-0.299-1.953-1.979-3.395-3.954-3.395s-3.655,1.442-3.954,3.395l-6.337,41.421c-0.879,5.746-3.126,11.067-6.542,15.642   c-7.826-7.835-14.949-16.385-21.205-25.472c-4.369-6.347-8.369-13.045-11.906-19.91l-8.15-36.881C255.501,1.305,253.877,0,252,0   s-3.501,1.305-3.906,3.137l-8.15,36.881c-3.537,6.865-7.537,13.563-11.906,19.91c-6.256,9.087-13.379,17.637-21.205,25.472   c-3.416-4.575-5.663-9.896-6.542-15.642l-6.337-41.421c-0.299-1.953-1.979-3.395-3.954-3.395s-3.655,1.442-3.954,3.395   l-6.337,41.421c-1.134,7.411-4.518,14.129-9.788,19.429c-2.958,2.976-4.588,6.93-4.588,11.134c0,5.993,3.35,11.212,8.267,13.876   v21.325c-3.24-5.546-6.228-11.178-8.92-16.847c-7.502-15.798-12.959-32.262-16.221-48.935c-0.367-1.877-2.013-3.232-3.926-3.232   s-3.559,1.355-3.926,3.232c-3.26,16.668-8.717,33.132-16.221,48.934c-4.617,9.724-10.084,19.345-16.249,28.596l0.001,0.001   c-0.424,0.635-0.672,1.396-0.672,2.217v45.322l-16.8-33.791v-32.315c0-2.209-1.791-4-4-4s-4,1.791-4,4v32.315l-24.383,49.042   l0.014,0.007c-0.268,0.537-0.432,1.133-0.432,1.774v41.726h-0.133c-2.209,0-4,1.791-4,4v33.412H53.6c-2.209,0-4,1.791-4,4v12.627   H45.2V294.98c0-2.209-1.791-4-4-4H28.8c-2.209,0-4,1.791-4,4v12.627H20.4V294.98c0-2.209-1.791-4-4-4H4c-2.209,0-4,1.791-4,4   v29.098c0,1.057,0.418,2.071,1.164,2.82l7.103,7.143V428c0.054,2.416,1.742,3.922,4,4h194.267c2.209,0,4-1.791,4-4v-4.314h82.934   V428c0,2.209,1.791,4,4,4h148.8h45.467c2.209,0,4-1.791,4-4v-93.958l7.103-7.143c0.746-0.75,1.164-1.763,1.164-2.82V294.98   C504,292.771,502.209,290.98,500,290.98z M417.333,170.946l18.345,36.897h-36.688L417.333,170.946z M396.533,215.843h41.601v37.726   h-41.601V215.843z M442.267,261.569v12.784h-92.269l-9.265-10.034v-2.75H442.267z M421.467,320.079h-12.4c-2.209,0-4,1.791-4,4   v12.627h-4.399v-12.627c0-2.209-1.791-4-4-4h-12.4c-2.209,0-4,1.791-4,4v12.627h-4.4v-12.627c0-2.209-1.791-4-4-4h-0.133V294.98   c0-2.209-1.791-4-4-4h-2.383l-7.966-8.627h84.882v8.627H438c-2.209,0-4,1.791-4,4v25.098h-0.134c-2.209,0-4,1.791-4,4v12.627   h-4.399v-12.627C425.467,321.87,423.676,320.079,421.467,320.079z M342.934,290.98h-12.4c-2.209,0-4,1.791-4,4v12.627h-4.399   V294.98c0-1.936-1.376-3.55-3.204-3.92l17.803-19.282l17.803,19.282c-1.827,0.369-3.204,1.983-3.204,3.92v12.627h-4.399V294.98   C346.934,292.771,345.143,290.98,342.934,290.98z M346.547,122.108c5.309-11.178,9.632-22.682,12.92-34.362   c3.287,11.677,7.61,23.182,12.92,34.362c3.756,7.909,8.059,15.745,12.818,23.382h-51.477   C338.488,137.853,342.791,130.017,346.547,122.108z M388.533,153.49v58.353v41.726h-47.8v-4.314c0-2.209-1.791-4-4-4H330.4V153.49   H388.533z M299.595,94.828c6.474-6.511,10.631-14.762,12.022-23.86L314,55.392l2.383,15.576c1.392,9.098,5.549,17.349,12.022,23.86   c1.459,1.467,2.262,3.417,2.262,5.494c0,4.277-3.45,7.757-7.691,7.757h-4.842h-8.268h-4.842c-4.241,0-7.691-3.48-7.691-7.758   C297.333,98.245,298.136,96.294,299.595,94.828z M310.661,245.255H305.6V116.079h4.267h8.268h4.267v33.412v95.998   c-1.569,0.541-2.703,2.014-2.703,3.766v12.627h-5.036v-12.627C314.661,247.046,312.87,245.255,310.661,245.255z M252,22.539   l3.286,14.873H252h-3.286L252,22.539z M214.667,100.321c0-3.177-0.934-6.209-2.665-8.786c8.361-8.31,15.966-17.396,22.626-27.07   c4.193-6.092,8.067-12.491,11.534-19.053H252h5.838c3.467,6.562,7.341,12.961,11.534,19.053c6.66,9.674,14.265,18.761,22.626,27.07   c-1.731,2.577-2.665,5.61-2.665,8.787c0,5.993,3.35,11.212,8.267,13.876v27.136h-22.046V99.608c0-2.209-1.791-4-4-4s-4,1.791-4,4   v12.627h-31.107V99.608c0-2.209-1.791-4-4-4s-4,1.791-4,4v41.726H206.4v-27.136C211.317,111.534,214.667,106.314,214.667,100.321z    M284.59,245.255h-9.036v-37.726H297.6v37.728c-2.197,0.015-3.974,1.797-3.974,3.997v12.627h-5.036v-12.627   C288.59,247.046,286.799,245.255,284.59,245.255z M275.554,199.529v-8.627H297.6v8.627H275.554z M275.554,182.902v-33.568H297.6   v33.568H275.554z M258.518,245.255h-13.035c-2.209,0-4,1.791-4,4v12.627h-5.036v-12.627v-41.726h31.107v41.726v12.627h-5.036   v-12.627C262.518,247.046,260.727,245.255,258.518,245.255z M236.446,199.529v-8.627h31.107v8.627H236.446z M236.446,182.902   v-62.667h31.107v62.667H236.446z M206.4,245.258v-37.728h22.046v37.726h-9.036c-2.209,0-4,1.791-4,4v12.627h-5.036v-12.627   C210.374,247.055,208.597,245.272,206.4,245.258z M206.4,199.529v-8.627h22.046v8.627H206.4z M206.4,182.902v-33.568h22.046v33.568   H206.4z M173.333,100.321c0-2.076,0.803-4.026,2.262-5.493c6.474-6.511,10.631-14.762,12.022-23.86L190,55.392l2.383,15.576   c1.392,9.098,5.549,17.349,12.022,23.86c1.459,1.467,2.262,3.417,2.262,5.494c0,4.277-3.45,7.757-7.691,7.757h-4.842h-8.268h-4.842   C176.783,108.079,173.333,104.599,173.333,100.321z M181.6,245.489V149.49v-33.412h4.267h8.268h4.267v129.176h-5.062   c-2.209,0-4,1.791-4,4v12.627h-5.036v-12.627C184.303,247.502,183.168,246.029,181.6,245.489z M176.303,253.255v12.627   c0,2.209,1.791,4,4,4h13.036c2.209,0,4-1.791,4-4v-12.627h5.035v12.627c0,2.209,1.791,4,4,4h13.036c2.209,0,4-1.791,4-4v-12.627   h5.036v12.627c0,2.209,1.791,4,4,4h13.036c2.209,0,4-1.791,4-4v-12.627h5.035v12.627c0,2.209,1.791,4,4,4h13.036   c2.209,0,4-1.791,4-4v-12.627h5.036v12.627c0,2.209,1.791,4,4,4h13.036c2.209,0,4-1.791,4-4v-12.627h5.035v12.627   c0,2.209,1.791,4,4,4h13.036c2.209,0,4-1.791,4-4v-12.627h5.036v11.064l-13.103,14.191H184.369l-13.103-14.191v-11.064H176.303z    M173.467,290.98h-12.4c-2.209,0-4,1.791-4,4v12.627h-4.399V294.98c0-1.936-1.376-3.55-3.204-3.92l17.803-19.282l17.803,19.282   c-1.827,0.369-3.204,1.983-3.204,3.92v12.627h-4.399V294.98C177.467,292.771,175.676,290.98,173.467,290.98z M131.613,122.108   c5.31-11.18,9.633-22.685,12.92-34.362c3.288,11.68,7.611,23.184,12.92,34.362c3.756,7.909,8.059,15.745,12.818,23.382h-51.477   C123.555,137.853,127.858,130.017,131.613,122.108z M115.467,211.843V153.49H173.6v91.765h-6.333c-2.209,0-4,1.791-4,4v4.314h-47.8   V211.843z M86.667,170.946l18.344,36.897H68.322L86.667,170.946z M65.866,215.843h41.601v37.726H65.866V215.843z M61.733,261.569   h101.533v2.75l-9.265,10.034H61.733V261.569z M61.733,282.353h84.882l-7.966,8.627h-2.383c-2.209,0-4,1.791-4,4v25.098h-0.133   c-2.209,0-4,1.791-4,4v12.627h-4.4v-12.627c0-2.209-1.791-4-4-4h-12.4c-2.209,0-4,1.791-4,4v12.627h-4.399v-12.627   c0-2.209-1.791-4-4-4h-12.4c-2.209,0-4,1.791-4,4v12.627h-4.399v-12.627c0-2.209-1.791-4-4-4H70V294.98c0-2.209-1.791-4-4-4h-4.267   V282.353z M53.733,424H16.267v-87.608h37.467V424z M13.93,328.392L8,322.428V298.98h4.4v12.627c0,2.209,1.791,4,4,4H28.8   c2.209,0,4-1.791,4-4V298.98h4.4v12.627c0,2.209,1.791,4,4,4H53.6c2.209,0,4-1.791,4-4V298.98H62v23.448l-5.93,5.964H13.93z    M140.533,424h-78.8v-89.958l4.4-4.425v11.09c0,2.209,1.791,4,4,4h12.399c2.209,0,4-1.791,4-4v-12.627h4.4v12.627   c0,2.209,1.791,4,4,4h12.399c2.209,0,4-1.791,4-4v-12.627h4.4v12.627c0,2.209,1.791,4,4,4h12.4c2.209,0,4-1.791,4-4v-11.089   l4.399,4.424V424z M186,424h-37.467v-87.608H186V424z M146.196,328.392l-5.93-5.964V298.98h4.4v12.627c0,2.209,1.791,4,4,4h12.399   c2.209,0,4-1.791,4-4V298.98h4.4v12.627c0,2.209,1.791,4,4,4h12.399c2.209,0,4-1.791,4-4V298.98h4.4v23.448l-5.93,5.964H146.196z    M227.333,415.686h-16.8v-41.725c0-1.457,0.076-2.896,0.221-4.314h16.579V415.686z M227.333,361.647h-14.955   c2.636-8.572,7.951-15.97,14.955-21.203V361.647z M248,415.686h-12.667v-46.039H248V415.686z M248,361.647h-12.667v-25.881   c3.942-1.749,8.2-2.901,12.667-3.333V361.647z M268.667,415.686H256v-46.039h12.667V415.686z M268.667,361.647H256v-29.214   c4.467,0.432,8.725,1.584,12.667,3.333V361.647z M293.467,415.686h-16.8v-46.039h16.579c0.145,1.418,0.221,2.857,0.221,4.314   V415.686z M276.667,361.647v-21.203c7.004,5.233,12.319,12.63,14.955,21.203H276.667z M310,424h-8.533v-50.039   c0-3.038-0.287-6.009-0.809-8.898c-0.018-0.119-0.035-0.236-0.063-0.351c-4.326-23.012-24.464-40.476-48.595-40.476   c-27.276,0-49.467,22.307-49.467,49.726V424H194v-89.958l7.103-7.143c0.746-0.75,1.164-1.763,1.164-2.82V294.98   c0-2.209-1.791-4-4-4h-2.383l-4.128-4.471h120.489l-4.128,4.471h-2.383c-2.209,0-4,1.791-4,4v29.098   c0,1.057,0.418,2.071,1.164,2.82l7.103,7.143V424z M355.467,424H318v-87.608h37.467V424z M315.663,328.392l-5.93-5.964V298.98h4.4   v12.627c0,2.209,1.791,4,4,4h12.399c2.209,0,4-1.791,4-4V298.98h4.4v12.627c0,2.209,1.791,4,4,4h12.399c2.209,0,4-1.791,4-4V298.98   h4.4v23.448l-5.93,5.964H315.663z M442.267,424h-78.8v-89.958l4.399-4.424v11.089c0,2.209,1.791,4,4,4h12.4c2.209,0,4-1.791,4-4   v-12.627h4.4v12.627c0,2.209,1.791,4,4,4h12.399c2.209,0,4-1.791,4-4v-12.627h4.4v12.627c0,2.209,1.791,4,4,4h12.399   c2.209,0,4-1.791,4-4v-11.09l4.4,4.425V424z M487.733,424h-37.467v-87.608h37.467V424z M496,322.428l-5.93,5.964H447.93   l-5.93-5.964V298.98h4.4v12.627c0,2.209,1.791,4,4,4H462.8c2.209,0,4-1.791,4-4V298.98h4.4v12.627c0,2.209,1.791,4,4,4H487.6   c2.209,0,4-1.791,4-4V298.98h4.4V322.428z"></path><path d="M409.066,224.471c-2.209,0-4,1.791-4,4v12.471c0,2.209,1.791,4,4,4s4-1.791,4-4v-12.471   C413.066,226.262,411.275,224.471,409.066,224.471z"></path><path d="M359.467,182.588c2.209,0,4-1.791,4-4v-12.471c0-2.209-1.791-4-4-4s-4,1.791-4,4v12.471   C355.467,180.797,357.258,182.588,359.467,182.588z"></path><path d="M342.934,182.588c2.209,0,4-1.791,4-4v-12.471c0-2.209-1.791-4-4-4s-4,1.791-4,4v12.471   C338.934,180.797,340.725,182.588,342.934,182.588z"></path><path d="M128,216.157c-2.209,0-4,1.791-4,4v12.471c0,2.209,1.791,4,4,4s4-1.791,4-4v-12.471   C132,217.948,130.209,216.157,128,216.157z"></path><path d="M359.467,236.627c2.209,0,4-1.791,4-4v-12.471c0-2.209-1.791-4-4-4s-4,1.791-4,4v12.471   C355.467,234.836,357.258,236.627,359.467,236.627z"></path><path d="M144.533,216.157c-2.209,0-4,1.791-4,4v12.471c0,2.209,1.791,4,4,4s4-1.791,4-4v-12.471   C148.533,217.948,146.742,216.157,144.533,216.157z"></path><path d="M165.066,232.627v-12.471c0-2.209-1.791-4-4-4s-4,1.791-4,4v12.471c0,2.209,1.791,4,4,4S165.066,234.836,165.066,232.627z"></path><path d="M144.533,162.118c-2.209,0-4,1.791-4,4v12.471c0,2.209,1.791,4,4,4s4-1.791,4-4v-12.471   C148.533,163.909,146.742,162.118,144.533,162.118z"></path><path d="M128,162.118c-2.209,0-4,1.791-4,4v12.471c0,2.209,1.791,4,4,4s4-1.791,4-4v-12.471   C132,163.909,130.209,162.118,128,162.118z"></path><path d="M94.934,224.471c-2.209,0-4,1.791-4,4v12.471c0,2.209,1.791,4,4,4s4-1.791,4-4v-12.471   C98.934,226.262,97.143,224.471,94.934,224.471z"></path><path d="M342.934,236.627c2.209,0,4-1.791,4-4v-12.471c0-2.209-1.791-4-4-4s-4,1.791-4,4v12.471   C338.934,234.836,340.725,236.627,342.934,236.627z"></path><path d="M78.4,224.471c-2.209,0-4,1.791-4,4v12.471c0,2.209,1.791,4,4,4s4-1.791,4-4v-12.471   C82.4,226.262,80.609,224.471,78.4,224.471z"></path><path d="M161.066,182.588c2.209,0,4-1.791,4-4v-12.471c0-2.209-1.791-4-4-4s-4,1.791-4,4v12.471   C157.066,180.797,158.857,182.588,161.066,182.588z"></path></g></svg>