<svg xmlns:dc="http://purl.org/dc/elements/1.1/" xmlns:cc="http://creativecommons.org/ns#" xmlns:rdf="http://www.w3.org/1999/02/22-rdf-syntax-ns#" xmlns:svg="http://www.w3.org/2000/svg" xmlns="http://www.w3.org/2000/svg" xmlns:sodipodi="http://sodipodi.sourceforge.net/DTD/sodipodi-0.dtd" xmlns:inkscape="http://www.inkscape.org/namespaces/inkscape" viewBox="0 0 511.99997 511.99997" version="1.1" x="0px" y="0px"><g transform="translate(0,-540.36225)"><path style="opacity:1;fill:#000000;fill-opacity:1;fill-rule:nonzero;stroke:none;stroke-width:5.99305582;stroke-linecap:square;stroke-linejoin:miter;stroke-miterlimit:10;stroke-dasharray:none;stroke-dashoffset:0;stroke-opacity:1" d="m 92.031235,686.10442 0,0.41211 -0.0371,-0.0117 c 0,0 -9.310229,28.69489 -34.654296,48.68554 -25.344067,19.99064 -57.49804237,23.92773 -57.49804237,23.92773 l 0.6035199,5.0332 c 0,0 9.70073847,-1.16328 22.79686647,-5.5039 l -0.16015,49.53906 -22.92577647,0 0,14.99999 91.64841847,0 0,58.43357 -23.921867,0 0,25 74.999982,0 0,-25 -22.95311,0 0,-58.43357 273.10347,0 0,58.43357 -23.666,0 0,25 74.99998,0 0,-25 -23.20898,0 0,-58.43357 90.99999,0 0,-14.99999 -22.0039,0 0.008,-49.17774 c 12.35519,4.03639 21.38477,5.13477 21.38477,5.13477 l 0.60741,-5 c 0,0 -31.71747,-3.93442 -56.72656,-23.92773 -23.96462,-19.1582 -33.79994,-46.38874 -34.59002,-48.6582 l 0,-0.45312 -28.125,0 0,0.084 c -0.24883,0.43442 -51.98279,90.58007 -136.35545,90.57812 -82.99455,-0.002 -134.30431,-87.0562 -136.1992,-90.32031 l 0,-0.34179 -28.124995,0 -0.002,0 z m 301.001895,9.05859 0,113.02343 -42.31638,0 0.004,-64.69336 c 21.32385,-18.30765 35.7897,-38.36109 42.31248,-48.33007 z m -273.10151,0.375 c 6.69716,10.18131 21.24825,30.19808 42.58007,48.39062 l 0.01,64.25781 -42.58983,0 0,-112.64843 z m -28.126955,4.24609 0,108.40234 -20.050778,0 -0.0176,-79.36914 c 9.667889,-10.27132 16.128639,-21.11073 20.068358,-29.0332 z m 329.353465,0.0195 c 4.07734,8.10445 10.69541,19.13842 20.46289,29.49217 l -0.0293,78.89063 -20.4336,0 0,-108.3828 z m -351.599552,31.2578 0.0156,77.125 -44.492175,0 0.16211,-50.20508 c 10.815659,-3.76341 23.641987,-9.66876 35.234366,-18.8125 3.285799,-2.59173 6.299739,-5.31966 9.080079,-8.10742 z m 374.164012,0.40039 0.002,0 c 2.63803,2.64527 5.48349,5.22914 8.55859,7.6875 11.84182,9.46686 24.97652,15.45252 35.87891,19.19531 l -0.01,49.8418 -44.45703,0 0.0274,-76.72461 z m -95.12303,13.82422 -0.008,62.90039 -44.4375,0 0.008,-35.7793 c 16.97088,-6.79412 31.83975,-16.60205 44.4375,-27.12109 z m -183.80662,0.55859 c 12.59154,10.42054 27.42346,20.09513 44.32031,26.77735 l -0.0117,35.56445 -44.29883,0 -0.01,-62.3418 z m 137.36717,27.33789 0.002,0 -0.008,35.00391 -44.49804,0 0,-26.40235 c 16.06852,-0.16699 30.93726,-3.41039 44.5039,-8.60156 z m -90.94531,0.25 c 13.5572,5.10909 28.40692,8.26908 44.44336,8.35938 l 0,26.39453 -44.45312,0 0.01,-34.75391 z"></path></g></svg>