<svg xmlns="http://www.w3.org/2000/svg" viewBox="0 0 64 64" x="0px" y="0px"><title>Avengers Icon-Line - Expand</title><g data-name="Layer 3"><path d="M53.41,30H10.59L3,22.41V7.59L10.59,0H53.41L61,7.59V22.41Zm-42-2H52.59L59,21.59V8.41L52.59,2H11.41L5,8.41V21.59Z"></path><path d="M12,27.41l-6-6V8.59l6-6ZM8,20.59l2,2V7.41l-2,2Z"></path><path d="M52,27.41V2.59l6,6V21.41Zm2-20V22.59l2-2V9.41Z"></path><polygon points="50 27 39.59 27 37.59 25 26.41 25 24.41 27 14 27 14 25 23.59 25 25.59 23 38.41 23 40.41 25 50 25 50 27"></polygon><path d="M37,55H27V28H37Zm-8-2h6V30H29Z"></path><path d="M36,64H28a3.15,3.15,0,0,1-2.53-1.12A2.43,2.43,0,0,1,25,60.76L27.25,53h9.51L39,60.73a2.44,2.44,0,0,1-.43,2.16A3.15,3.15,0,0,1,36,64Zm-7.25-9L27,61.27a.43.43,0,0,0,.08.38A1.21,1.21,0,0,0,28,62h8a1.21,1.21,0,0,0,1-.35.44.44,0,0,0,.07-.41L35.25,55Z"></path><rect x="27.28" y="32.5" width="9.43" height="2" transform="translate(-12.89 22.04) rotate(-31.99)"></rect><rect x="27.28" y="41.5" width="9.43" height="2" transform="translate(-17.66 23.41) rotate(-31.99)"></rect><rect x="27.28" y="49.5" width="9.43" height="2" transform="translate(-21.89 24.62) rotate(-31.99)"></rect></g></svg>