<svg xmlns="http://www.w3.org/2000/svg" xmlns:xlink="http://www.w3.org/1999/xlink" version="1.1" x="0px" y="0px" viewBox="0 0 96 96" enable-background="new 0 0 96 96" xml:space="preserve"><g><path d="M88.283,65.161c1.067-1.065,1.7-2.386,1.7-3.838c0-3.045-2.906-5.596-6.79-6.257c1.326-1.587,2.145-3.711,2.145-6.05   c0-10.835-10.066-12.013-20.994-12.965l4.617-2.398l-0.028-0.941c-0.021-0.739-0.243-4.494-2.483-5.833   c-0.732-0.438-1.954-0.787-3.615,0.044c-2.789,1.395-7.111,4.052-9.282,5.412l-0.536-0.938c1.551-1.383,2.534-3.39,2.534-5.627   c0-4.163-3.387-7.549-7.55-7.549s-7.55,3.386-7.55,7.549c0,2.237,0.983,4.244,2.534,5.627l-0.536,0.938   c-2.171-1.359-6.493-4.017-9.282-5.412c-1.658-0.829-2.883-0.482-3.616-0.044c-2.24,1.339-2.462,5.094-2.483,5.833l-0.028,0.941   l4.539,2.358c-0.175,0.012-0.356,0.026-0.531,0.039c-10.483,0.734-20.385,1.428-20.385,12.967c0,2.339,0.818,4.463,2.145,6.05   c-3.884,0.661-6.789,3.212-6.789,6.257c0,1.452,0.633,2.772,1.7,3.838C4.054,66.07,1.5,68.425,1.5,71.267   c0,3.652,4.21,6.513,9.584,6.513h73.832c5.374,0,9.584-2.86,9.584-6.513C94.5,68.425,91.946,66.07,88.283,65.161z M13.661,49.016   c0-0.511,0.024-0.993,0.069-1.449c5.034,1.166,18.57,3.878,35.507,3.878c10.153,0,21.527-1,33.016-3.869   c0.056,0.453,0.085,0.932,0.085,1.44c0,3.241-2.216,5.878-4.938,5.878H18.599C15.876,54.894,13.661,52.257,13.661,49.016z    M40.646,48.215c-6.861-0.369-12.858-1.122-17.545-1.883c0.026-0.018,0.054-0.035,0.079-0.052c1.223-0.814,2.188-1.457,4.299-1.457   c2.779,0,4.188-0.411,5.55-0.808c1.213-0.354,2.359-0.688,4.71-0.688c1.535,0,2.548,0.142,3.375,0.329L40.646,48.215z    M54.887,43.659c0.852-0.192,1.862-0.331,3.371-0.331c2.352,0,3.497,0.334,4.711,0.688c1.362,0.397,2.771,0.808,5.55,0.808   c2.097,0,3.059,0.666,4.277,1.51c0.068,0.048,0.141,0.096,0.211,0.144c-6.055,1.049-11.991,1.615-17.643,1.844L54.887,43.659z    M63.121,38.957c9.6,0.828,15.919,1.63,18.226,5.766c-0.919,0.228-1.836,0.442-2.753,0.646c-1.962-0.04-2.91-0.685-4.09-1.501   c-1.384-0.958-2.951-2.043-5.985-2.043c-2.351,0-3.497-0.334-4.71-0.688c-1.362-0.397-2.771-0.808-5.551-0.808   c-0.937,0-1.716,0.052-2.398,0.131l3.539-1.839C60.654,38.74,61.902,38.851,63.121,38.957z M48,21.22   c2.509,0,4.55,2.041,4.55,4.549c0,2.144-1.495,3.934-3.493,4.414l-0.938-0.051L46.97,30.19c-2.013-0.47-3.52-2.268-3.52-4.421   C43.45,23.261,45.491,21.22,48,21.22z M31.09,29.453c0.18-0.106,0.574,0.072,0.734,0.153c3.628,1.814,10.274,6.054,10.341,6.097   l1.328,0.848l1.875-3.28l1.323-0.074c0.426,0.075,0.861,0.122,1.309,0.122c0.444,0,0.878-0.046,1.301-0.12l1.331,0.073l1.875,3.279   l1.328-0.848c0.066-0.043,6.712-4.283,10.341-6.097c0.162-0.081,0.559-0.259,0.733-0.153c0.416,0.248,0.779,1.341,0.94,2.435   l-14.419,7.49l0.927,9.036c-3.007,0.062-5.918,0.033-8.709-0.065l0.921-8.971l-14.42-7.489   C30.311,30.794,30.674,29.701,31.09,29.453z M31.255,39.042c1.731-0.121,3.521-0.251,5.343-0.423l3.533,1.835   c-0.684-0.079-1.46-0.126-2.393-0.126c-2.779,0-4.188,0.411-5.55,0.808c-1.213,0.354-2.359,0.688-4.71,0.688   c-3.019,0-4.582,1.041-5.961,1.959c-1.223,0.814-2.188,1.457-4.298,1.457v0.019c-1.093-0.224-1.997-0.425-2.732-0.595   C16.485,40.335,22.146,39.679,31.255,39.042z M14.789,57.894h3.81h58.801h3.812c3.401,0,5.772,1.807,5.772,3.429   c0,1.827-2.697,3.431-5.772,3.431H14.789c-3.075,0-5.772-1.604-5.772-3.431C9.017,59.701,11.388,57.894,14.789,57.894z    M84.916,74.78H11.084c-3.88,0-6.584-1.852-6.584-3.513c0-1.662,2.704-3.514,6.584-3.514h3.705h66.422h3.705   c3.88,0,6.584,1.852,6.584,3.514C91.5,72.928,88.796,74.78,84.916,74.78z"></path><path d="M17.263,25.743c-0.208-0.247-2.1-2.412-4.502-2.412c-1.104,0-2.682,0.456-3.933,2.629l-1.294,2.248h11.805L17.263,25.743z"></path><path d="M7.792,45.177l2.028-2.012c0.205-0.204,5.045-5.049,5.669-9.617l0.193-1.537l-1.542-0.16c0.001,0-3.329-0.345-5.491,2.239   c-1.556,1.86-2.014,4.644-1.362,8.275L7.792,45.177z M10.95,36.016c0.267-0.318,0.574-0.552,0.889-0.723   c-0.466,1.011-1.107,2.024-1.762,2.927C10.206,37.299,10.498,36.556,10.95,36.016z"></path><path d="M23.846,25.382c1.652,0,2.997-1.344,2.997-2.997s-1.345-2.997-2.997-2.997s-2.997,1.344-2.997,2.997   S22.193,25.382,23.846,25.382z"></path><path d="M87.173,25.959c-1.252-2.172-2.831-2.628-3.935-2.628c-2.403,0-4.295,2.165-4.502,2.412l-2.075,2.466h11.808L87.173,25.959   z"></path><path d="M81.86,31.852l-1.558,0.161l0.209,1.535c0.622,4.568,5.463,9.413,5.668,9.617l2.029,2.012l0.504-2.812   c0.65-3.632,0.192-6.416-1.363-8.275C85.188,31.507,81.859,31.851,81.86,31.852z M84.161,35.293   c0.314,0.171,0.621,0.404,0.887,0.722c0.453,0.541,0.745,1.284,0.874,2.205C85.268,37.317,84.627,36.304,84.161,35.293z"></path><path d="M72.153,25.382c1.652,0,2.997-1.344,2.997-2.997s-1.345-2.997-2.997-2.997s-2.996,1.344-2.996,2.997   S70.501,25.382,72.153,25.382z"></path></g></svg>