<svg xmlns="http://www.w3.org/2000/svg" xmlns:xlink="http://www.w3.org/1999/xlink" viewBox="0 0 100 100" version="1.1" x="0px" y="0px"><title>22</title><desc>Created with Sketch.</desc><g stroke="none" stroke-width="1" fill="none" fill-rule="evenodd"><g fill="#000000"><path d="M49.9066762,95.9677104 C32.1515286,95.9677104 17.2794619,83.3671233 13.7177333,66.6195695 C15.0574571,66.9806262 15.9401286,67.7994129 17.0473238,68.8303327 C18.7025524,70.3712329 20.7623143,72.2888454 24.6821095,72.2888454 C28.6017095,72.2888454 30.6614714,70.3712329 32.3163095,68.8303327 C33.8204238,67.4297456 34.9073143,66.4180039 37.293319,66.4180039 C39.6793238,66.4180039 40.7662143,67.4297456 42.2705238,68.8303327 C43.9255571,70.3712329 45.985319,72.2888454 49.9051143,72.2888454 C53.8249095,72.2888454 55.8848667,70.3712329 57.5400952,68.8303327 C59.0444048,67.4297456 60.1311,66.4180039 62.5174952,66.4180039 C64.9036952,66.4180039 65.990781,67.4299413 67.4950905,68.8303327 C69.1501238,70.3712329 71.210081,72.2888454 75.1300714,72.2888454 C79.0500619,72.2888454 81.1098238,70.3712329 82.7650524,68.8305284 C83.8726381,67.7994129 84.7555048,66.9806262 86.0954238,66.6195695 C82.5338905,83.3671233 67.6618238,95.9677104 49.9066762,95.9677104 M44.2767905,22.2193738 C44.2791333,22.2189824 44.2814762,22.218591 44.283819,22.2183953 C44.5716,22.1741683 44.8601619,22.1338552 45.1500905,22.0964775 C45.189919,22.0913894 45.2297476,22.0863014 45.2695762,22.081409 C45.5218238,22.0497065 45.7746571,22.0207436 46.0284667,21.9943249 C46.0930905,21.9874755 46.157519,21.9808219 46.2219476,21.974364 C46.4515476,21.9514677 46.6813429,21.9313112 46.9121143,21.9127202 C46.9937238,21.9060665 47.0753333,21.8992172 47.1573333,21.8931507 C47.3738524,21.8771037 47.5913476,21.8639922 47.8090381,21.8516634 C47.8994333,21.8465753 47.9898286,21.8407045 48.0802238,21.8362035 C48.2996714,21.825636 48.5197048,21.8180039 48.7401286,21.8111546 C48.8256429,21.8084149 48.9105714,21.804501 48.996281,21.8023483 C49.2989,21.7951076 49.6023,21.7908023 49.9066762,21.7908023 C50.2110524,21.7908023 50.5144524,21.7951076 50.8170714,21.8023483 C50.902781,21.804501 50.9877095,21.8084149 51.0732238,21.8111546 C51.2936476,21.8180039 51.513681,21.825636 51.7331286,21.8362035 C51.8235238,21.8407045 51.9137238,21.8465753 52.004119,21.8516634 C52.2218095,21.8639922 52.4395,21.8771037 52.656019,21.8931507 C52.7378238,21.8992172 52.8196286,21.9060665 52.9012381,21.9127202 C53.1320095,21.9313112 53.3618048,21.9514677 53.5914048,21.974364 C53.6558333,21.9806262 53.7204571,21.9874755 53.785081,21.9943249 C54.0386952,22.0207436 54.2915286,22.0497065 54.543581,22.081409 C54.5836048,22.0863014 54.6234333,22.0913894 54.6632619,22.0964775 C54.9529952,22.1338552 55.2417524,22.1741683 55.5291429,22.2181996 C55.531681,22.218591 55.534219,22.2189824 55.5365619,22.2193738 C68.441019,24.2021526 79.1695476,32.8923679 84.0608476,44.6150685 C81.857781,45.2440313 80.4466,46.5915851 79.2521333,47.7338552 C77.7985857,49.1238748 76.7482048,50.1283757 74.4607952,50.1283757 C72.1731905,50.1283757 71.1230048,49.1240705 69.6696524,47.7340509 C68.0499571,46.1851272 66.0341238,44.2575342 62.1826619,44.2575342 C58.3312,44.2575342 56.3157571,46.1851272 54.6960619,47.7340509 C53.2427095,49.1240705 52.1925238,50.1283757 49.9051143,50.1283757 C47.6179,50.1283757 46.5677143,49.1240705 45.1143619,47.7340509 C43.4948619,46.1851272 41.479419,44.2575342 37.6279571,44.2575342 C33.7768857,44.2575342 31.7614429,46.1851272 30.1419429,47.7340509 C28.6883952,49.1240705 27.6384048,50.1283757 25.3513857,50.1283757 C23.0643667,50.1283757 22.014181,49.1240705 20.5606333,47.7340509 C19.3661667,46.5915851 17.9555714,45.2440313 15.7523095,44.6150685 C20.6436095,32.8923679 31.3723333,24.2021526 44.2767905,22.2193738 M37.9401429,19.6618395 L37.9401429,13.4880626 L39.6965048,13.4880626 L60.1166524,13.4880626 L61.8730143,13.4880626 L61.8730143,19.6618395 C59.3485857,18.8874755 56.7607048,18.3649706 54.1306524,18.0945205 C54.0986333,18.0911937 54.0666143,18.0878669 54.0345952,18.0847358 C53.7085476,18.0518591 53.381719,18.0221135 53.0545,17.9970646 C53.0521571,17.9970646 53.0500095,17.9966732 53.0478619,17.9966732 C52.7200571,17.9716243 52.3918619,17.9508806 52.0628857,17.9338552 C52.0037286,17.9307241 51.9445714,17.9285714 51.8854143,17.925636 C51.6263333,17.9133072 51.3668619,17.9033268 51.1071952,17.8958904 C51.0234381,17.8935421 50.939681,17.890998 50.8555333,17.8890411 C50.5396381,17.8818004 50.2235476,17.876908 49.9066762,17.876908 C49.5898048,17.876908 49.2737143,17.8818004 48.9580143,17.8890411 C48.8736714,17.890998 48.7893286,17.8935421 48.7053762,17.8958904 C48.4464905,17.9033268 48.1879952,17.9133072 47.9298905,17.925636 C47.8699524,17.9283757 47.809819,17.9307241 47.7494905,17.9338552 C47.4212952,17.9508806 47.0936857,17.9716243 46.7664667,17.9964775 L46.7555333,17.997456 C46.4302667,18.0223092 46.105781,18.0518591 45.7816857,18.0843444 C45.7477143,18.0878669 45.7137429,18.0911937 45.6799667,18.0947162 C43.0505,18.3655577 40.4635952,18.8878669 37.9401429,19.6618395 M49.9066762,3.91389432 C53.5230714,3.91389432 56.6449286,6.27475538 57.7552476,9.5741683 L42.0579095,9.5741683 C43.1684238,6.27475538 46.2904762,3.91389432 49.9066762,3.91389432 M12.9047619,58.8792564 C12.9047619,55.2107632 13.4414714,51.6659491 14.435819,48.3168297 C15.8475857,48.6410959 16.735919,49.4857143 17.8651762,50.5657534 C19.4846762,52.1146771 21.5003143,54.0422701 25.3513857,54.0422701 C29.2026524,54.0422701 31.2179,52.1146771 32.8374,50.5657534 C34.2909476,49.1757339 35.3409381,48.1714286 37.6279571,48.1714286 C39.9153667,48.1714286 40.9653571,49.1757339 42.4187095,50.5657534 C44.0382095,52.1146771 46.0538476,54.0422701 49.9051143,54.0422701 C53.7565762,54.0422701 55.772019,52.1146771 57.3917143,50.5657534 C58.8450667,49.1757339 59.8952524,48.1714286 62.1826619,48.1714286 C64.4702667,48.1714286 65.5206476,49.1757339 66.974,50.5657534 C68.5936952,52.1146771 70.6093333,54.0422701 74.4607952,54.0422701 C78.3122571,54.0422701 80.3278952,52.1146771 81.9475905,50.5657534 C83.0768476,49.4857143 83.9653762,48.6410959 85.3773381,48.3168297 C86.3716857,51.6659491 86.9083952,55.2107632 86.9083952,58.8792564 C86.9083952,60.1178082 86.8463095,61.3420744 86.7274095,62.5497065 C83.455219,62.8473581 81.6137333,64.5606654 80.1076667,65.9626223 C78.6033571,67.3632094 77.5164667,68.3749511 75.1300714,68.3749511 C72.7438714,68.3749511 71.6567857,67.3630137 70.1524762,65.9626223 C68.4974429,64.4217221 66.4374857,62.5041096 62.5174952,62.5041096 C58.5977,62.5041096 56.5377429,64.4217221 54.8825143,65.9626223 C53.3782048,67.3632094 52.2915095,68.3749511 49.9051143,68.3749511 C47.5191095,68.3749511 46.432219,67.3632094 44.9279095,65.9626223 C43.272681,64.4217221 41.2131143,62.5041096 37.293319,62.5041096 C33.3735238,62.5041096 31.3139571,64.4217221 29.6589238,65.9626223 C28.1548095,67.3632094 27.067919,68.3749511 24.6821095,68.3749511 C22.2959095,68.3749511 21.2092143,67.3632094 19.7049048,65.9626223 C18.1988381,64.5606654 16.3575476,62.8473581 13.0855524,62.5497065 C12.9668476,61.3420744 12.9047619,60.1178082 12.9047619,58.8792564 M65.7777762,21.0892368 L65.7777762,11.5311155 C65.7777762,10.4502935 64.9035,9.5741683 63.8253952,9.5741683 L61.8017524,9.5741683 C60.5842476,4.07945205 55.6734238,0 49.9066762,0 C44.1399286,0 39.2293,4.07964775 38.0116,9.5741683 L35.9877619,9.5741683 C34.9096571,9.5741683 34.035381,10.4502935 34.035381,11.5311155 L34.035381,21.0894325 C19.339419,27.3136986 9,41.9088063 9,58.8792564 C9,81.4880626 27.3506238,99.8816047 49.9066762,99.8816047 C72.4625333,99.8816047 90.8131571,81.4880626 90.8131571,58.8792564 C90.8131571,41.9088063 80.4737381,27.3136986 65.7777762,21.0892368 M24.75794,46.434775 C26.3009067,46.434775 27.5562876,45.1764579 27.5562876,43.6298826 C27.5562876,42.0833072 26.3009067,40.8249902 24.75794,40.8249902 C23.2149733,40.8249902 21.9595924,42.0833072 21.9595924,43.6298826 C21.9595924,45.1764579 23.2149733,46.434775 24.75794,46.434775 M49.8391824,46.434775 C51.382149,46.434775 52.63753,45.1764579 52.63753,43.6298826 C52.63753,42.0833072 51.382149,40.8249902 49.8391824,40.8249902 C48.2962157,40.8249902 47.0408348,42.0833072 47.0408348,43.6298826 C47.0408348,45.1764579 48.2962157,46.434775 49.8391824,46.434775 M74.9204052,46.434775 C76.4631767,46.434775 77.7185576,45.1764579 77.7185576,43.6298826 C77.7185576,42.0833072 76.4631767,40.8249902 74.9204052,40.8249902 C73.3774386,40.8249902 72.1220576,42.0833072 72.1220576,43.6298826 C72.1220576,45.1764579 73.3774386,46.434775 74.9204052,46.434775 M37.2985514,69.7568493 C35.7555848,69.7568493 34.5002038,71.0151663 34.5002038,72.5617417 C34.5002038,74.108317 35.7555848,75.3666341 37.2985514,75.3666341 C38.8415181,75.3666341 40.096899,74.108317 40.096899,72.5617417 C40.096899,71.0151663 38.8415181,69.7568493 37.2985514,69.7568493 M62.3797938,69.7568493 C60.8368271,69.7568493 59.5814462,71.0151663 59.5814462,72.5617417 C59.5814462,74.108317 60.8368271,75.3666341 62.3797938,75.3666341 C63.9227605,75.3666341 65.1781414,74.108317 65.1781414,72.5617417 C65.1781414,71.0151663 63.9227605,69.7568493 62.3797938,69.7568493"></path></g></g></svg>