<svg xmlns="http://www.w3.org/2000/svg" xmlns:xlink="http://www.w3.org/1999/xlink" version="1.1" x="0px" y="0px" viewBox="0 0 226.248 240" style="enable-background:new 0 0 226.248 240;" xml:space="preserve"><g><path d="M74.516,185.002v-49.455h4.635V166h13.098v-2v-14.998V147h2.001h9.63v-19.18v-18.939V79.182   c2.471,2.083,5.175,4.071,8.198,5.7c3.6,1.92,7.727,3.413,12.409,3.43c0.097,0.002,0.194,0.003,0.292,0.003   c5.454,0,11.264-2.622,15.378-7.287c4.266-4.729,7.345-11.165,9.798-19.877c1.186-4.258-1.3-8.668-5.556-9.856   c-0.383-0.106-0.767-0.174-1.149-0.223V48h3c5.5,0,8.42-4.213,6.488-9.363l-7.977-21.273c-1.932-5.15-5.092-5.15-7.023,0   l-7.977,21.273c-1.932,5.15,0.988,9.363,6.488,9.363h3v3.592c-2.218,0.899-4.012,2.774-4.705,5.258   c-2.005,7.247-4.415,11.468-6.219,13.404c-1.883,1.918-2.592,1.962-3.839,2.058c-1.066,0.017-2.781-0.411-4.842-1.528   c-3.09-1.635-6.694-4.688-9.736-7.818c-3.077-3.14-5.608-6.267-7.229-8.236c-1.095-1.328-2.53-2.207-4.075-2.625   c-0.771-0.259-1.594-0.404-2.453-0.404H57.516c-1.196,0-2.324,0.279-3.334,0.765c-1.76,0.747-3.263,2.116-4.132,3.987   c0,0-0.027,0.059-0.114,0.239c-0.635,1.345-3.994,8.151-8.241,14.198c-2.101,3.018-4.455,5.828-6.458,7.56   c-0.992,0.869-1.882,1.459-2.47,1.741c-0.251,0.124-0.443,0.195-0.566,0.231c-0.277-0.221-0.924-0.847-1.736-2.255   c-1.067-1.825-2.333-4.874-3.487-9.228c-0.084-0.315-0.19-0.616-0.309-0.912l-14.08,8.663c1.673,5.269,3.637,9.438,6.269,12.819   c1.611,2.044,3.535,3.805,5.82,5.055c2.248,1.242,4.84,1.897,7.294,1.897c0.027,0,0.054-0.001,0.081-0.001   c3.114-0.004,5.874-0.919,8.207-2.13c3.833-2.024,6.822-4.835,9.527-7.867v22.419v18.939v57.182H74.516z"></path><circle cx="76.834" cy="22.5" r="22.5"></circle><rect x="26.248" y="225" width="30" height="15"></rect><rect x="43.248" y="206" width="30" height="15"></rect><rect x="60.248" y="225" width="30" height="15"></rect><rect x="94.248" y="225" width="30" height="15"></rect><rect x="128.248" y="225" width="30" height="15"></rect><rect x="162.248" y="225" width="30" height="15"></rect><rect x="196.248" y="225" width="30" height="15"></rect><rect x="26.248" y="187" width="30" height="15"></rect><rect x="60.248" y="187" width="30" height="15"></rect><rect x="94.248" y="187" width="30" height="15"></rect><rect x="128.248" y="187" width="30" height="15"></rect><rect x="162.248" y="187" width="30" height="15"></rect><rect x="196.248" y="187" width="30" height="15"></rect><rect x="94.248" y="149" width="30" height="15"></rect><rect x="128.248" y="149" width="30" height="15"></rect><rect x="162.248" y="149" width="30" height="15"></rect><rect x="196.248" y="149" width="30" height="15"></rect><rect x="77.248" y="206" width="30" height="15"></rect><rect x="111.248" y="206" width="30" height="15"></rect><rect x="145.248" y="206" width="30" height="15"></rect><rect x="179.248" y="206" width="30" height="15"></rect><rect x="213.248" y="206" width="13" height="15"></rect><rect x="77.248" y="168" width="30" height="15"></rect><rect x="111.248" y="168" width="30" height="15"></rect><rect x="145.248" y="168" width="30" height="15"></rect><rect x="179.248" y="168" width="30" height="15"></rect><rect x="213.248" y="168" width="13" height="15"></rect><rect x="111.248" y="130" width="30" height="15"></rect><rect x="145.248" y="130" width="30" height="15"></rect><rect x="179.248" y="130" width="30" height="15"></rect><rect x="213.248" y="130" width="13" height="15"></rect><rect x="26.248" y="206" width="13" height="15"></rect><rect x="1.706" y="55.501" transform="matrix(0.8517 -0.524 0.524 0.8517 -30.5372 18.0975)" width="30" height="15"></rect></g></svg>