<svg xmlns="http://www.w3.org/2000/svg" data-name="Layer 1" viewBox="0 0 64 64" x="0px" y="0px"><path d="M61.89,30.55A1,1,0,0,0,61,30H58.93a27.46,27.46,0,0,0-1.54-7.23A27,27,0,0,0,41.23,6.62L40.55,8.5A24.9,24.9,0,0,1,57,31a1,1,0,0,0,1,1h1l-4,5.33-2.33-3.1-.06-.09L51,32h1a1,1,0,0,0,.72-.31A1,1,0,0,0,53,31a20.55,20.55,0,0,0-1.61-7.1A21.11,21.11,0,0,0,40.14,12.64a20.65,20.65,0,0,0-3-1L39.6,9.8a1,1,0,0,0,0-1.6l-8-6A1,1,0,0,0,30,3V5.07a27.46,27.46,0,0,0-7.23,1.54A27,27,0,0,0,6.62,22.77l1.88.68A24.9,24.9,0,0,1,31,7a1,1,0,0,0,1-1V5l5.33,4-3.1,2.33-.09.06L32,13V12a1,1,0,0,0-.31-.72A1,1,0,0,0,31,11a20.78,20.78,0,0,0-7.1,1.61A21.11,21.11,0,0,0,12.64,23.86a20.65,20.65,0,0,0-1,3L9.8,24.4a1,1,0,0,0-1.6,0l-6,8a1,1,0,0,0-.09,1.05A1,1,0,0,0,3,34H5.07a27.46,27.46,0,0,0,1.54,7.23A27,27,0,0,0,22.77,57.38l.68-1.88A24.9,24.9,0,0,1,7,33a1,1,0,0,0-1-1H5l4-5.33,2.33,3.1.06.09L13,32H12a1,1,0,0,0-.72.31,1,1,0,0,0-.28.74,20.55,20.55,0,0,0,1.61,7.1A21.11,21.11,0,0,0,23.86,51.36a20.65,20.65,0,0,0,3,1L24.4,54.2a1,1,0,0,0,0,1.6l8,6a1,1,0,0,0,.6.2.91.91,0,0,0,.45-.11A1,1,0,0,0,34,61V58.93a27.46,27.46,0,0,0,7.23-1.54A27,27,0,0,0,57.38,41.23l-1.88-.68A24.9,24.9,0,0,1,33,57a1,1,0,0,0-1,1v1l-5.33-4,3.1-2.33.09-.06L32,51v1a1,1,0,0,0,.31.72,1,1,0,0,0,.74.28,20.55,20.55,0,0,0,7.1-1.61A21.11,21.11,0,0,0,51.36,40.14a20.65,20.65,0,0,0,1-3L54.2,39.6a1,1,0,0,0,1.6,0l6-8A1,1,0,0,0,61.89,30.55Zm-22.52,19A18.54,18.54,0,0,1,34,50.89V49a1,1,0,0,0-1.6-.8L29,50.75a18.79,18.79,0,0,1-4.36-1.23A19.15,19.15,0,0,1,14.48,39.37,18.54,18.54,0,0,1,13.11,34H15a1,1,0,0,0,.89-.55,1,1,0,0,0-.09-1.05L13.25,29a18.79,18.79,0,0,1,1.23-4.36A19.15,19.15,0,0,1,24.63,14.48,18.86,18.86,0,0,1,30,13.11V15a1,1,0,0,0,.55.89,1,1,0,0,0,1.05-.09L35,13.25a18.79,18.79,0,0,1,4.36,1.23A19.15,19.15,0,0,1,49.52,24.63,18.54,18.54,0,0,1,50.89,30H49a1,1,0,0,0-.89.55,1,1,0,0,0,.09,1.05L50.75,35a18.79,18.79,0,0,1-1.23,4.36A19.15,19.15,0,0,1,39.37,49.52Z"></path><path d="M48.12,35.1a3.12,3.12,0,0,1,0-6.2A1,1,0,0,0,49,27.65a18,18,0,0,0-1.9-4.58,1,1,0,0,0-.68-.47,1,1,0,0,0-.8.2,3.13,3.13,0,0,1-4.38-4.39,1,1,0,0,0-.28-1.48A18,18,0,0,0,36.35,15a1,1,0,0,0-1.25.85,3.12,3.12,0,0,1-6.2,0A1,1,0,0,0,27.65,15a18,18,0,0,0-4.58,1.9,1,1,0,0,0-.28,1.48,3.13,3.13,0,0,1-4.38,4.39,1,1,0,0,0-.8-.2,1,1,0,0,0-.68.47A18,18,0,0,0,15,27.65a1,1,0,0,0,.85,1.25,3.12,3.12,0,0,1,0,6.2A1,1,0,0,0,15,36.35a18,18,0,0,0,1.9,4.58,1,1,0,0,0,1.48.28,3.12,3.12,0,0,1,4.38,4.38,1,1,0,0,0,.28,1.48A18,18,0,0,0,27.65,49a1,1,0,0,0,1.25-.85,3.12,3.12,0,0,1,6.2,0,1,1,0,0,0,.43.71,1.06,1.06,0,0,0,.57.17,1.07,1.07,0,0,0,.25,0,18,18,0,0,0,4.58-1.9,1,1,0,0,0,.28-1.48,3.12,3.12,0,0,1,4.38-4.38,1,1,0,0,0,1.48-.28A18,18,0,0,0,49,36.35a1,1,0,0,0-.85-1.25ZM45.83,39A5.13,5.13,0,0,0,39,45.83a15.67,15.67,0,0,1-2.2.91,5.14,5.14,0,0,0-9.64,0,15.67,15.67,0,0,1-2.2-.91A5.13,5.13,0,0,0,18.17,39a15.67,15.67,0,0,1-.91-2.2,5.14,5.14,0,0,0,0-9.64,16.18,16.18,0,0,1,.91-2.2A5.13,5.13,0,0,0,25,18.17a15.67,15.67,0,0,1,2.2-.91,5.14,5.14,0,0,0,9.64,0,15.67,15.67,0,0,1,2.2.91A5.13,5.13,0,0,0,45.83,25a16.18,16.18,0,0,1,.91,2.2,5.14,5.14,0,0,0,0,9.64A15.67,15.67,0,0,1,45.83,39Z"></path><path d="M36.93,31.18a4.84,4.84,0,0,1,0,1.64l2,.36a6.38,6.38,0,0,0,0-2.36Z"></path><path d="M32,37a5,5,0,1,1,4.32-7.5l1.74-1a7,7,0,1,0,0,7l-1.74-1A5,5,0,0,1,32,37Z"></path></svg>