<svg xmlns="http://www.w3.org/2000/svg" xmlns:xlink="http://www.w3.org/1999/xlink" xml:space="preserve" style="shape-rendering:geometricPrecision;text-rendering:geometricPrecision;image-rendering:optimizeQuality;" viewBox="0 0 173.397 173.397" x="0px" y="0px" fill-rule="evenodd" clip-rule="evenodd"><defs><style type="text/css">
   
    .fil2 {fill:none}
    .fil1 {fill:black}
    .fil0 {fill:black;fill-rule:nonzero}
   
  </style></defs><g><g><path class="fil0" d="M31.4208 18.9752c0.7303,0.1308 1.4286,-0.355 1.5594,-1.0853 0.1308,-0.7302 -0.355,-1.4285 -1.0853,-1.5594 -1.7582,-0.3191 -3.5706,-0.3353 -5.3521,-0.0253 -1.7263,0.3002 -3.4315,0.9044 -5.039,1.8326 -1.6048,0.9265 -2.9782,2.0991 -4.0997,3.4417 -1.1678,1.3983 -2.0634,2.978 -2.6639,4.6547 -0.2502,0.7012 0.1154,1.4725 0.8166,1.7227 0.7011,0.2502 1.4725,-0.1154 1.7227,-0.8165 0.4963,-1.3859 1.2326,-2.6868 2.1898,-3.8329 0.9266,-1.1093 2.06,-2.0774 3.3831,-2.8412 1.3201,-0.7622 2.7223,-1.2587 4.1434,-1.5059 1.4844,-0.2583 2.9827,-0.247 4.425,0.0148z"></path><path class="fil0" d="M19.5191 27.6329c-0.2764,0.6895 0.0585,1.4726 0.748,1.749 0.6896,0.2764 1.4727,-0.0585 1.7491,-0.7481 0.3202,-0.7937 0.7722,-1.5388 1.3461,-2.1988 0.5538,-0.6369 1.219,-1.1933 1.9862,-1.6361l-0.669 -1.1643 0.6743 1.168c0.0251,-0.0145 0.0494,-0.0297 0.0733,-0.0456 0.7474,-0.421 1.5359,-0.7055 2.3356,-0.861 0.8616,-0.1676 1.7352,-0.1867 2.5844,-0.0669 0.736,0.1017 1.4155,-0.4125 1.5173,-1.1485 0.1017,-0.7361 -0.4125,-1.4156 -1.1485,-1.5173 -1.1396,-0.1607 -2.3089,-0.1357 -3.459,0.088 -1.0823,0.2105 -2.1495,0.5964 -3.1616,1.1677 -0.0304,0.0147 -0.0605,0.0305 -0.0901,0.0476l0.0015 0.0029 -0.0015 0.0009 0.0012 0.0023c-1.0389,0.6004 -1.9356,1.3491 -2.6777,2.2027 -0.7708,0.8865 -1.3784,1.8885 -1.8096,2.9575z"></path><path class="fil0" d="M32.1162 14.5976c0.7215,0.1774 1.4504,-0.2636 1.6278,-0.9851 0.1774,-0.7215 -0.2636,-1.4505 -0.9851,-1.6279 -2.3257,-0.5747 -4.7333,-0.7211 -7.101,-0.4017 -2.2873,0.3086 -4.5344,1.0513 -6.6309,2.2617l-0.0015 -0.0028c-0.0386,0.0222 -0.0755,0.0461 -0.111,0.0714 -2.0499,1.2035 -3.7783,2.7529 -5.1608,4.5428 -1.4592,1.889 -2.5359,4.0476 -3.2016,6.3515 -0.2065,0.7128 0.2039,1.4582 0.9166,1.6647 0.7127,0.2065 1.4582,-0.2039 1.6647,-0.9166 0.5725,-1.9809 1.4969,-3.8353 2.7486,-5.4559 1.1798,-1.5274 2.6488,-2.8464 4.3852,-3.8665 0.0362,-0.0169 0.0719,-0.0353 0.1071,-0.0556l-0.6744 -1.1679 0.6743 1.1642c1.7846,-1.0305 3.6966,-1.6628 5.6419,-1.9252 2.0271,-0.2735 4.0957,-0.1465 6.1001,0.3489z"></path><path class="fil1" d="M39.2777 48.4319c6.6269,-4.0169 9.3456,-11.651 6.0722,-17.0511 -0.0648,-0.107 -0.1322,-0.2116 -0.2007,-0.3153l-11.2934 6.8456 -0.6648 0.403 -12.026 7.2897c0.0602,0.1087 0.1219,0.2168 0.1868,0.3238 3.2733,5.4001 11.299,6.5213 17.9259,2.5043z"></path><circle class="fil1" transform="matrix(1.73878 -1.00388 1.00388 1.73878 29.332 31.6931)" r="1.4817"></circle><path class="fil1" d="M44.6782 59.7058c8.9023,-15.0981 26.4817,-26.4359 46.6892,-26.4359 28.1067,0 51.3311,21.9322 53.0031,45.4124l-91.9667 0 0 -18.9765 -7.7256 0z"></path><path class="fil1" d="M155.738 97.9519l0 64.0281 -50.9533 0 0 -34.7889c0,-2.3181 -1.8965,-4.2146 -4.2146,-4.2146l-18.1886 0c-2.3182,0 -4.2146,1.8965 -4.2146,4.2146l0 34.7889 -50.9532 0 0 -64.0281 128.524 0zm-104.967 15.4112l0.0001 0c6.085,0 11.0635,4.9784 11.0635,11.0635l0 19.4449 -22.1271 0 0 -19.4449c0,-6.0851 4.9785,-11.0635 11.0635,-11.0635zm81.13 0l0.0001 0c6.085,0 11.0635,4.9784 11.0635,11.0635l0 19.4449 -22.1271 0 0 -19.4449c0,-6.0851 4.9785,-11.0635 11.0635,-11.0635z"></path><path class="fil1" d="M26.9904 81.3796l6.7469 0 0 13.875 -6.7469 0c-3.8158,0 -6.9376,-3.1218 -6.9376,-6.9375l0 0c0,-3.8156 3.1218,-6.9375 6.9376,-6.9375zm9.4443 0l13.4139 0 0 13.875 -13.4139 0 0 -13.875zm16.1113 0l13.4139 0 0 13.875 -13.4139 0 0 -13.875zm16.1114 0l13.4138 0 0 13.875 -13.4138 0 0 -13.875zm16.1113 0l13.4139 0 0 13.875 -13.4139 0 0 -13.875zm16.1114 0l13.4139 0 0 13.875 -13.4139 0 0 -13.875zm16.1113 0l13.4139 0 0 13.875 -13.4139 0 0 -13.875zm16.1113 0l13.414 0 0 13.875 -13.414 0 0 -13.875zm16.1114 0l6.747 0c3.8157,0 6.9375,3.1219 6.9375,6.9375l0 0c0,3.8157 -3.1218,6.9375 -6.9375,6.9375l-6.747 0 0 -13.875z"></path><polygon class="fil1" points="49.7065,78.6823 49.7065,62.4031 26.9902,62.4031 26.9902,78.6823 26.9903,78.6823 "></polygon><path class="fil1" d="M42.711 59.7058l-1.6707 -9.2411c-0.1194,0.076 -0.2398,0.1509 -0.3609,0.2242 -2.3718,1.4378 -5.123,2.3907 -7.9143,2.694l-1.1432 6.3229 11.0891 0z"></path><rect class="fil1" transform="matrix(0.80446 0.80446 -0.494859 0.494859 143.01 21.951)" width="19.0501" height="26.2467" rx="3.1053" ry="3.1053"></rect><path class="fil0" d="M52.1201 113.363c0,-0.7448 -0.6039,-1.3487 -1.3487,-1.3487 -0.7448,0 -1.3488,0.6039 -1.3488,1.3487l0 30.5084c0,0.7448 0.604,1.3487 1.3488,1.3487 0.7448,0 1.3487,-0.6039 1.3487,-1.3487l0 -30.5084z"></path><path class="fil0" d="M61.7967 124.865c0.7421,0 1.3439,-0.6078 1.3439,-1.3575 0,-0.7497 -0.6018,-1.3575 -1.3439,-1.3575l-22.0506 0c-0.7421,0 -1.3438,0.6078 -1.3438,1.3575 0,0.7497 0.6017,1.3575 1.3438,1.3575l22.0506 0z"></path><path class="fil0" d="M61.8349 135.085c0.7421,0 1.3438,-0.6078 1.3438,-1.3574 0,-0.7497 -0.6017,-1.3575 -1.3438,-1.3575l-22.127 0c-0.7421,0 -1.3439,0.6078 -1.3439,1.3575 0,0.7496 0.6018,1.3574 1.3439,1.3574l22.127 0z"></path><path class="fil0" d="M133.25 113.363c0,-0.7448 -0.6039,-1.3487 -1.3487,-1.3487 -0.7448,0 -1.3487,0.6039 -1.3487,1.3487l0 30.5084c0,0.7448 0.6039,1.3487 1.3487,1.3487 0.7448,0 1.3487,-0.6039 1.3487,-1.3487l0 -30.5084z"></path><path class="fil0" d="M142.927 124.865c0.7421,0 1.3439,-0.6078 1.3439,-1.3575 0,-0.7497 -0.6018,-1.3575 -1.3439,-1.3575l-22.0506 0c-0.7421,0 -1.3438,0.6078 -1.3438,1.3575 0,0.7497 0.6017,1.3575 1.3438,1.3575l22.0506 0z"></path><path class="fil0" d="M142.965 135.085c0.7421,0 1.3438,-0.6078 1.3438,-1.3574 0,-0.7497 -0.6017,-1.3575 -1.3438,-1.3575l-22.127 0c-0.7421,0 -1.3439,0.6078 -1.3439,1.3575 0,0.7496 0.6018,1.3574 1.3439,1.3574l22.127 0z"></path><circle class="fil1" transform="matrix(1.73878 -1.00388 1.00388 1.73878 84.9349 142.478)" r="1.4817"></circle><path class="fil1" d="M139.959 48.691l-3.6466 3.5329c-1.721,-2.1523 -3.6022,-4.1768 -5.6119,-6.0489 -0.8723,-0.8125 -1.768,-1.596 -2.6849,-2.3509l3.5457 -3.5308 8.3977 8.3977z"></path></g></g><rect class="fil2" width="173.397" height="173.397"></rect></svg>