<?xml version="1.0" encoding="utf-8"?>
<!-- Generator: Adobe Illustrator 26.5.0, SVG Export Plug-In . SVG Version: 6.00 Build 0)  -->
<svg version="1.1" id="Layer_1" xmlns="http://www.w3.org/2000/svg" xmlns:xlink="http://www.w3.org/1999/xlink" x="0px" y="0px"
	 viewBox="0 0 100 100" style="enable-background:new 0 0 100 100;" xml:space="preserve">
<style type="text/css">
	.st0{fill-rule:evenodd;clip-rule:evenodd;}
	.st1{fill:#FFFFFF;}
</style>
<g>
	<path class="st0" d="M81.3,34H57l-0.2-1.3c5.8-2.6,9.9-8.4,9.9-15.2c0-9.2-7.5-16.6-16.6-16.6c-9.2,0-16.6,7.5-16.6,16.7
		c0,6.8,4.1,12.5,9.9,15.1L43,34H18.6L4,99h92L81.3,34z M40.1,17.6c0-5.4,4.4-9.9,9.9-9.9c5.4,0,9.9,4.4,9.9,9.9
		c0,3.5-1.8,6.5-4.5,8.2c-1-1.2-3-2.1-5.4-2.1c-2.4,0-4.4,0.8-5.4,2.1C41.9,24.1,40.1,21.1,40.1,17.6z"/>
</g>
<g>
	<path class="st1" d="M44.3,64.6c-0.7,0-1-0.3-1-1v-3.2c0-0.7,0.3-1,1-1h3v-8.8h-2.4c-0.7,0-1-0.3-1-1v-3.2c0-0.7,0.3-1,1-1h7.7
		c0.7,0,1,0.3,1,1v13H56c0.7,0,1,0.3,1,1v3.2c0,0.7-0.3,1-1,1H44.3z"/>
	<path class="st1" d="M28.3,89.6c-0.7,0-1-0.3-1-1v-13h-3.9c-0.7,0-1-0.3-1-1v-3.2c0-0.7,0.3-1,1-1h13.9c0.7,0,1,0.3,1,1v3.2
		c0,0.7-0.3,1-1,1h-3.9v13c0,0.7-0.3,1-1,1H28.3z"/>
	<path class="st1" d="M48.7,90c-6.6,0-8.2-2.2-8.2-5.4v-9c0-3.2,1.6-5.4,8.2-5.4c6.6,0,8.2,2.2,8.2,5.4v9C56.9,87.9,55.3,90,48.7,90
		z M48.7,84.9c1.9,0,2.2-0.5,2.2-1.2v-7.1c0-0.7-0.3-1.2-2.2-1.2c-1.9,0-2.2,0.5-2.2,1.2v7.1C46.4,84.4,46.8,84.9,48.7,84.9z"/>
	<path class="st1" d="M61.2,89.6c-0.7,0-1-0.3-1-1V71.6c0-0.7,0.3-1,1-1h2.7c0.7,0,1.1,0.2,1.6,0.7l5.1,5.9v-5.6c0-0.7,0.3-1,1-1h4
		c0.7,0,1,0.3,1,1v17.1c0,0.7-0.3,1-1,1h-4c-0.7,0-1-0.3-1-1v-3.2L66.1,80v8.7c0,0.7-0.3,1-1,1H61.2z"/>
</g>
</svg>
